<svg xmlns="http://www.w3.org/2000/svg" width="66" height="66" viewBox="0 0 66 66"><defs><style>.a{fill:#fff;stroke:#00082a;}.b{fill:#ff416c;}.c{stroke:none;}.d{fill:none;}</style></defs><g transform="translate(0.263)"><g class="a" transform="translate(-0.263)"><circle class="c" cx="33" cy="33" r="33"/><circle class="d" cx="33" cy="33" r="32.5"/></g><path class="b" d="M6.789,18h0A9.177,9.177,0,0,1,1.55,16.315,6.207,6.207,0,0,1,0,14.743,28.117,28.117,0,0,1,3.205,2.25,11.364,11.364,0,0,1,9.436,0h.025l.223.257a15.432,15.432,0,0,0-5.852,2.8l.049-.026c.148-.074.6-.3,1.262-.593A19.978,19.978,0,0,1,12.857.887a19.167,19.167,0,0,1,8.913,2.177A15.041,15.041,0,0,0,16.228.343L16.539,0h.025a11.365,11.365,0,0,1,6.23,2.25A28.232,28.232,0,0,1,26,14.743a6.359,6.359,0,0,1-1.561,1.572A9.232,9.232,0,0,1,19.189,18c-.034-.038-.816-.939-1.47-1.736a7.076,7.076,0,0,0,4.029-2.55,12.95,12.95,0,0,1-2.56,1.264,16.123,16.123,0,0,1-6.073,1.158A16.735,16.735,0,0,1,5.3,14.228l-.1-.058c-.181-.1-.558-.308-.809-.477a7.012,7.012,0,0,0,3.9,2.528C7.62,17.027,6.8,17.99,6.789,18ZM16.971,8.11a2.25,2.25,0,0,0-2.165,2.322,2.17,2.17,0,1,0,4.329,0A2.249,2.249,0,0,0,16.971,8.11Zm-8.657,0a2.249,2.249,0,0,0-2.164,2.322,2.249,2.249,0,0,0,2.164,2.322,2.25,2.25,0,0,0,2.165-2.322A2.25,2.25,0,0,0,8.314,8.11Z" transform="translate(19.737 24)"/></g></svg>