<svg xmlns="http://www.w3.org/2000/svg" width="66" height="66" viewBox="0 0 66 66"><defs><style>.a{fill:#fff;stroke:#00082a;}.b{fill:#ff416c;}.c{stroke:none;}.d{fill:none;}</style></defs><g transform="translate(0.026)"><g class="a" transform="translate(-0.026)"><circle class="c" cx="33" cy="33" r="33"/><circle class="d" cx="33" cy="33" r="32.5"/></g><path class="b" d="M8.7,21.5c0,.108-.121.194-.273.194-.173.016-.294-.07-.294-.194,0-.108.121-.194.273-.194C8.56,21.29,8.7,21.376,8.7,21.5Zm-1.63-.242c-.037.108.068.231.225.263a.243.243,0,0,0,.325-.108c.031-.108-.068-.231-.225-.28A.266.266,0,0,0,7.066,21.258Zm2.317-.091c-.152.038-.257.14-.241.263.016.108.152.177.309.14s.257-.14.241-.247S9.535,21.15,9.383,21.167ZM12.832.563A12.733,12.733,0,0,0,0,13.682,13.46,13.46,0,0,0,8.885,26.543c.671.124.907-.3.907-.651,0-.333-.016-2.172-.016-3.3,0,0-3.669.807-4.44-1.6,0,0-.6-1.565-1.457-1.968,0,0-1.2-.844.084-.828A2.756,2.756,0,0,1,5.986,19.58,2.732,2.732,0,0,0,9.808,20.7a3.018,3.018,0,0,1,.839-1.812c-2.93-.333-5.887-.769-5.887-5.941A4.129,4.129,0,0,1,6,9.784a5.2,5.2,0,0,1,.136-3.651c1.1-.349,3.617,1.452,3.617,1.452a12.084,12.084,0,0,1,6.584,0s2.521-1.807,3.617-1.452a5.2,5.2,0,0,1,.136,3.651,4.229,4.229,0,0,1,1.352,3.167c0,5.189-3.087,5.6-6.018,5.941a3.224,3.224,0,0,1,.891,2.495c0,1.812-.016,4.054-.016,4.5,0,.349.241.774.907.651A13.339,13.339,0,0,0,26,13.682,13.011,13.011,0,0,0,12.832.563ZM5.1,19.107c-.068.054-.052.177.037.28.084.086.2.124.273.054.068-.054.052-.177-.037-.28C5.284,19.075,5.163,19.037,5.1,19.107Zm-.566-.436c-.037.07.016.156.121.21a.154.154,0,0,0,.225-.038c.037-.07-.016-.156-.121-.21C4.65,18.6,4.566,18.618,4.529,18.672Zm1.7,1.914c-.084.07-.052.231.068.333.121.124.273.14.341.054.068-.07.037-.231-.068-.333C6.453,20.516,6.3,20.5,6.227,20.586Zm-.6-.79c-.084.054-.084.194,0,.317s.225.177.294.124a.25.25,0,0,0,0-.333C5.85,19.779,5.714,19.726,5.63,19.8Z" transform="translate(20.421 19.438)"/></g></svg>