<svg xmlns="http://www.w3.org/2000/svg" width="66" height="66" viewBox="0 0 66 66"><defs><style>.a{fill:#fff;stroke:#00082a;}.b{fill:#ff416c;}.c{stroke:none;}.d{fill:none;}</style></defs><g class="a"><circle class="c" cx="33" cy="33" r="33"/><circle class="d" cx="33" cy="33" r="32.5"/></g><path class="b" d="M-1681.5-4840a6.5,6.5,0,0,1-6.5-6.5v-13a6.5,6.5,0,0,1,6.5-6.5h13a6.5,6.5,0,0,1,6.5,6.5v13a6.5,6.5,0,0,1-6.5,6.5Zm-4.5-19.5v13a4.5,4.5,0,0,0,4.5,4.5h13a4.5,4.5,0,0,0,4.5-4.5v-13a4.5,4.5,0,0,0-4.5-4.5h-13A4.5,4.5,0,0,0-1686-4859.5Zm6.807,10.692a6,6,0,0,1-1.116-6.939,6,6,0,0,1,5.357-3.3,5.989,5.989,0,0,1,.882.064,6,6,0,0,1,5.055,5.056,6,6,0,0,1-3.237,6.239,5.985,5.985,0,0,1-2.695.641A6,6,0,0,1-1679.192-4848.808Zm.67-6.04a3.993,3.993,0,0,0,.744,4.627,3.98,3.98,0,0,0,2.831,1.171,4.012,4.012,0,0,0,1.8-.428,3.991,3.991,0,0,0,2.158-4.159,3.974,3.974,0,0,0-1.128-2.242,3.967,3.967,0,0,0-2.241-1.128,4.116,4.116,0,0,0-.589-.043A3.975,3.975,0,0,0-1678.522-4854.848ZM-1669-4860a1,1,0,0,1,1-1,1,1,0,0,1,1,1,1,1,0,0,1-1,1A1,1,0,0,1-1669-4860Z" transform="translate(1708 4886)"/></svg>