<svg xmlns="http://www.w3.org/2000/svg" width="66" height="66" viewBox="0 0 66 66"><defs><style>.a{fill:#fff;stroke:#00082a;}.b{fill:#ff416c;}.c{stroke:none;}.d{fill:none;}</style></defs><g transform="translate(-0.238)"><g class="a" transform="translate(0.238)"><circle class="c" cx="33" cy="33" r="33"/><circle class="d" cx="33" cy="33" r="32.5"/></g><path class="b" d="M5.82,26H.429V8.642H5.82ZM3.122,6.274A3.137,3.137,0,1,1,6.243,3.122,3.148,3.148,0,0,1,3.122,6.274ZM25.994,26H20.615V17.55c0-2.014-.041-4.6-2.8-4.6-2.8,0-3.232,2.188-3.232,4.451V26H9.2V8.642h5.17v2.368h.075a5.664,5.664,0,0,1,5.1-2.8C25,8.206,26,11.8,26,16.465V26Z" transform="translate(19.977 20)"/></g></svg>