<svg xmlns="http://www.w3.org/2000/svg" width="66" height="66" viewBox="0 0 66 66"><defs><style>.a{fill:#fff;stroke:#00082a;}.b{fill:#ff416c;}.c{stroke:none;}.d{fill:none;}</style></defs><g transform="translate(-0.499)"><g class="a" transform="translate(0.499)"><circle class="c" cx="33" cy="33" r="33"/><circle class="d" cx="33" cy="33" r="32.5"/></g><path class="b" d="M24.419,12.2a2.841,2.841,0,0,0-2.077.923,13.545,13.545,0,0,0-7.513-2.454l1.518-7.241,4.833,1.149A2.218,2.218,0,0,0,23.329,6.85a2.252,2.252,0,0,0,2.176-2.3,2.248,2.248,0,0,0-2.176-2.3,2.2,2.2,0,0,0-1.934,1.277L16.057,2.266a.511.511,0,0,0-.6.412l-1.666,7.984a13.72,13.72,0,0,0-7.469,2.483,2.837,2.837,0,0,0-2.1-.946C1.168,12.2.17,16.528,2.96,18.008a6.862,6.862,0,0,0-.142,1.433c0,4.862,5.173,8.8,11.524,8.8,6.379,0,11.552-3.94,11.552-8.8a5.844,5.844,0,0,0-.17-1.456C28.458,16.5,27.45,12.2,24.419,12.2ZM7.382,18.315a2.233,2.233,0,0,1,2.176-2.3,2.294,2.294,0,0,1,0,4.578,2.222,2.222,0,0,1-2.176-2.274ZM19.126,23.74c-1.995,2.112-7.623,2.112-9.617,0a.562.562,0,0,1,0-.795.506.506,0,0,1,.723,0c1.523,1.654,6.576,1.683,8.165,0a.506.506,0,0,1,.723,0A.558.558,0,0,1,19.126,23.74ZM19.082,20.6a2.292,2.292,0,1,1,2.176-2.274A2.218,2.218,0,0,1,19.082,20.6Z" transform="translate(19.148 17.757)"/></g></svg>