<svg xmlns="http://www.w3.org/2000/svg" width="66" height="66" viewBox="0 0 66 66"><defs><style>.a{fill:#fff;stroke:#00082a;}.b{fill:#ff416c;}.c{stroke:none;}.d{fill:none;}</style></defs><g transform="translate(-0.475)"><g class="a" transform="translate(0.475)"><circle class="c" cx="33" cy="33" r="33"/><circle class="d" cx="33" cy="33" r="32.5"/></g><path class="b" d="M23.327,8.864c.017.241.017.481.017.722,0,7.339-5.362,15.8-15.161,15.8A14.623,14.623,0,0,1,0,22.889a10.585,10.585,0,0,0,1.287.069A10.4,10.4,0,0,0,7.9,20.585a5.37,5.37,0,0,1-4.982-3.85,6.456,6.456,0,0,0,1.006.086,5.423,5.423,0,0,0,1.4-.189,5.5,5.5,0,0,1-4.273-5.448v-.069a5.2,5.2,0,0,0,2.409.7A5.612,5.612,0,0,1,1.089,7.2a5.687,5.687,0,0,1,.726-2.8A14.955,14.955,0,0,0,12.8,10.2a6.519,6.519,0,0,1-.132-1.272A5.441,5.441,0,0,1,18,3.381a5.219,5.219,0,0,1,3.893,1.753,10.239,10.239,0,0,0,3.382-1.341,5.5,5.5,0,0,1-2.343,3.059A10.347,10.347,0,0,0,26,5.993a11.728,11.728,0,0,1-2.673,2.87Z" transform="translate(19.955 18.619)"/></g></svg>