<svg xmlns="http://www.w3.org/2000/svg" width="66" height="66" viewBox="0 0 66 66"><defs><style>.a{fill:#fff;stroke:#00082a;}.b{fill:#ff416c;}.c{stroke:none;}.d{fill:none;}</style></defs><g transform="translate(0.026)"><g class="a" transform="translate(-0.026)"><circle class="c" cx="33" cy="33" r="33"/><circle class="d" cx="33" cy="33" r="32.5"/></g><path class="b" d="M26.507,7.316a3.242,3.242,0,0,0-2.3-2.278C22.18,4.5,14.05,4.5,14.05,4.5s-8.13,0-10.158.538a3.242,3.242,0,0,0-2.3,2.278,33.237,33.237,0,0,0-.543,6.2,33.237,33.237,0,0,0,.543,6.2,3.2,3.2,0,0,0,2.3,2.242C5.92,22.5,14.05,22.5,14.05,22.5s8.13,0,10.158-.538a3.2,3.2,0,0,0,2.3-2.242,33.237,33.237,0,0,0,.543-6.2,33.237,33.237,0,0,0-.543-6.2ZM11.391,17.325V9.712l6.8,3.806-6.8,3.806Z" transform="translate(19.371 19.5)"/></g></svg>