<svg xmlns="http://www.w3.org/2000/svg" width="300" height="300" viewBox="0 0 300 300"><defs><style>.a{fill:#61f7d0;}.b{fill:#fecc2f;}.c{fill:#6b6b6e;}.d{fill:#ff416c;}.e{fill:#dfdfdf;}.f{fill:#ff4b2b;}</style></defs><g transform="translate(-941.342)"><g transform="translate(959.527 18.184)"><g transform="translate(94.462 93.583)"><path class="a" d="M1166.245,186.377a37.354,37.354,0,1,1-37.355-37.355A37.355,37.355,0,0,1,1166.245,186.377Z" transform="translate(-1091.537 -149.022)"/></g><g transform="translate(80.022 79.144)"><path class="b" d="M1124.077,233.356c-1.262,0-2.539-.046-3.791-.137l.282-3.893c1.159.086,2.342.127,3.509.127h.233l.031,3.9Zm4.309-.175-.323-3.892c1.249-.1,2.5-.254,3.721-.452l.623,3.853C1131.085,232.9,1129.733,233.069,1128.386,233.182Zm-12.128-.413c-1.337-.2-2.676-.46-3.983-.762l.888-3.8c1.206.282,2.444.519,3.68.707Zm20.124-.881-.925-3.795c1.21-.293,2.422-.641,3.6-1.029l1.22,3.708C1139,231.194,1137.688,231.568,1136.381,231.888Zm-28.018-.959c-1.284-.409-2.566-.874-3.815-1.382l1.474-3.614c1.151.471,2.338.9,3.526,1.279Zm35.715-1.575-1.511-3.6c1.149-.483,2.293-1.014,3.4-1.583l1.787,3.472C1146.556,228.259,1145.321,228.832,1144.078,229.354Zm-43.226-1.485c-1.208-.6-2.4-1.265-3.551-1.961l2.024-3.341c1.06.644,2.165,1.253,3.281,1.815Zm50.426-2.221-2.053-3.32c1.054-.652,2.1-1.357,3.108-2.095l2.3,3.149C1153.548,224.181,1152.417,224.944,1151.278,225.648Zm-57.362-1.975c-1.088-.78-2.165-1.619-3.2-2.492l2.516-2.986c.958.808,1.954,1.584,2.961,2.305Zm63.9-2.809-2.543-2.961c.942-.808,1.864-1.667,2.746-2.552l2.767,2.753C1159.83,219.062,1158.832,219.992,1157.813,220.864Zm-70.093-2.414c-.961-.945-1.894-1.94-2.776-2.956l2.948-2.56c.816.94,1.681,1.86,2.567,2.734Zm75.812-3.327-2.972-2.531c.8-.947,1.584-1.937,2.318-2.949l3.159,2.293C1165.244,213.029,1164.4,214.1,1163.531,215.123Zm-81.124-2.791c-.8-1.08-1.563-2.206-2.279-3.35l3.309-2.071c.663,1.059,1.373,2.1,2.11,3.1Zm85.879-3.772-3.329-2.038c.648-1.055,1.263-2.158,1.832-3.274l3.479,1.771C1169.653,206.227,1168.986,207.419,1168.286,208.561Zm-90.172-3.1c-.622-1.2-1.2-2.43-1.728-3.665l3.594-1.525c.485,1.142,1.022,2.283,1.6,3.389Zm93.853-4.133-3.61-1.487c.476-1.153.911-2.341,1.294-3.523l3.713,1.2C1172.951,198.8,1172.48,200.081,1171.967,201.329Zm-97.017-3.321c-.429-1.284-.811-2.6-1.133-3.895l3.789-.94c.3,1.2.651,2.41,1.046,3.6Zm99.512-4.393-3.8-.9c.287-1.207.532-2.442.722-3.676l3.858.6C1175.037,190.972,1174.772,192.309,1174.463,193.615Zm-101.472-3.472c-.218-1.321-.391-2.676-.508-4.021l3.889-.34c.109,1.246.266,2.5.47,3.721Zm102.723-4.532-3.892-.3c.1-1.235.146-2.5.146-3.746,0-.316,0-.631-.011-.946l3.9-.077c.009.341.011.681.011,1.022C1175.871,182.916,1175.817,184.277,1175.714,185.612Zm-103.427-3.54,0-.508c0-1.185.039-2.375.119-3.539l3.895.265c-.074,1.075-.109,2.175-.109,3.274l0,.478Zm99.454-5.2c-.119-1.243-.292-2.494-.51-3.716l3.847-.677c.235,1.321.419,2.67.55,4.015Zm-95.045-2.313-3.863-.564c.2-1.342.447-2.684.744-3.99l3.806.871C1077.108,172.083,1076.877,173.321,1076.7,174.561Zm93.737-5.063c-.315-1.212-.677-2.419-1.082-3.588l3.692-1.276c.436,1.266.83,2.572,1.172,3.882Zm-92.075-2.239-3.727-1.166c.4-1.279.859-2.564,1.363-3.823l3.624,1.454C1079.152,164.885,1078.73,166.075,1078.359,167.259Zm89.63-4.837c-.5-1.141-1.048-2.278-1.632-3.373l3.444-1.838c.632,1.186,1.228,2.412,1.766,3.647Zm-86.835-2.122-3.5-1.734c.592-1.2,1.248-2.4,1.942-3.56l3.352,2C1082.309,158.086,1081.7,159.194,1081.154,160.3Zm83.312-4.484c-.671-1.048-1.391-2.082-2.143-3.078l3.115-2.354c.813,1.079,1.592,2.2,2.316,3.327ZM1085,153.87l-3.182-2.262c.785-1.105,1.619-2.186,2.476-3.213l3,2.5C1086.5,151.849,1085.729,152.848,1085,153.87Zm74.95-4.034c-.829-.935-1.7-1.848-2.594-2.709l2.714-2.809c.966.932,1.91,1.919,2.8,2.928Zm-70.146-1.723-2.794-2.727c.934-.956,1.922-1.894,2.941-2.788l2.575,2.936C1091.585,146.359,1090.671,147.229,1089.806,148.113Zm64.755-3.487c-.958-.79-1.959-1.555-2.981-2.275l2.244-3.195c1.1.778,2.188,1.6,3.225,2.46Zm-59.12-1.451-2.335-3.129c1.069-.8,2.193-1.573,3.337-2.295l2.087,3.3C1097.472,141.718,1096.433,142.432,1095.441,143.175Zm52.984-2.857c-1.064-.633-2.175-1.234-3.3-1.784l1.718-3.5c1.218.6,2.417,1.245,3.571,1.929Zm-46.65-1.144-1.823-3.454c1.187-.626,2.415-1.214,3.656-1.748l1.544,3.587C1104.006,138.051,1102.871,138.594,1101.776,139.174Zm39.92-2.156c-1.159-.46-2.351-.877-3.538-1.243l1.147-3.731c1.286.395,2.574.847,3.83,1.345Zm-33.049-.806-1.255-3.7c1.267-.432,2.577-.82,3.883-1.154l.966,3.781C1111.031,135.455,1109.822,135.814,1108.647,136.213Zm25.887-1.4c-1.216-.271-2.455-.5-3.688-.671l.547-3.865c1.332.188,2.674.432,3.99.725Zm-18.628-.449-.661-3.848c1.322-.227,2.674-.4,4.016-.529l.361,3.886C1118.379,133.992,1117.129,134.158,1115.906,134.368Zm11.211-.6c-1-.063-2.025-.093-3.041-.093l-.708,0-.062-3.9.77-.005c1.1,0,2.2.033,3.285.1Z" transform="translate(-1072.284 -129.77)"/></g><g transform="translate(120.51 33.131)"><g transform="translate(9.353 0)"><rect class="c" width="3.904" height="30.524"/></g><g transform="translate(0 20.424)"><path class="c" d="M1137.573,111.983l-11.3-13.867,3.025-2.465,8.28,10.154,8.281-10.154,3.024,2.465Z" transform="translate(-1126.268 -95.652)"/></g></g><g transform="translate(120.51 192.721)"><g transform="translate(9.353 6.232)"><rect class="c" width="3.904" height="30.525"/></g><path class="c" d="M1145.854,297.54l-8.281-10.154-8.28,10.154-3.025-2.466,11.3-13.867,11.306,13.867Z" transform="translate(-1126.268 -281.207)"/></g><g transform="translate(118.467)"><path class="d" d="M1150.242,37.6a13.349,13.349,0,1,1-13.35-13.352A13.349,13.349,0,0,1,1150.242,37.6Z" transform="translate(-1123.544 -24.245)"/></g><g transform="translate(118.467 236.933)"><path class="d" d="M1150.242,353.5a13.349,13.349,0,1,1-13.35-13.349A13.35,13.35,0,0,1,1150.242,353.5Z" transform="translate(-1123.544 -340.156)"/></g><g transform="translate(193.745 120.512)"><g transform="translate(6.232 9.353)"><rect class="c" width="30.525" height="3.904"/></g><path class="c" d="M1237.781,207.537l-13.867-11.306,13.867-11.3,2.468,3.024-10.156,8.28,10.156,8.28Z" transform="translate(-1223.915 -184.927)"/></g><g transform="translate(34.153 120.512)"><g transform="translate(0 9.353)"><rect class="c" width="30.524" height="3.904"/></g><g transform="translate(20.423)"><path class="c" d="M1040.824,207.537l-2.468-3.025,10.156-8.28-10.156-8.28,2.468-3.024,13.867,11.3Z" transform="translate(-1038.356 -184.927)"/></g></g><g transform="translate(236.933 118.468)"><path class="d" d="M1294.846,208.9a13.349,13.349,0,1,1,13.351-13.349A13.348,13.348,0,0,1,1294.846,208.9Z" transform="translate(-1281.498 -182.202)"/></g><g transform="translate(0 118.468)"><path class="d" d="M978.938,208.9a13.349,13.349,0,1,1,13.349-13.349A13.348,13.348,0,0,1,978.938,208.9Z" transform="translate(-965.588 -182.202)"/></g><g transform="translate(175.605 60.653)"><g transform="translate(3.027)"><rect class="c" width="30.527" height="3.904" transform="translate(0 21.586) rotate(-45)"/></g><g transform="translate(0 9.572)"><path class="c" d="M1199.729,135.677l1.812-17.8,3.883.4-1.327,13.035,13.035-1.327.394,3.883Z" transform="translate(-1199.729 -117.879)"/></g></g><g transform="translate(61.379 174.884)"><g transform="translate(0 3.025)"><rect class="c" width="30.525" height="3.904" transform="translate(0 21.585) rotate(-45)"/></g><g transform="translate(9.572)"><path class="c" d="M1076.176,275.223l-3.883-.4,1.326-13.036-13.036,1.327-.393-3.883,17.8-1.81Z" transform="translate(-1060.189 -257.424)"/></g></g><g transform="translate(202.236 34.698)"><path class="d" d="M1258.022,93.3a13.348,13.348,0,1,1,0-18.877A13.347,13.347,0,0,1,1258.022,93.3Z" transform="translate(-1235.236 -70.51)"/></g><g transform="translate(34.7 202.235)"><path class="d" d="M1034.64,316.68a13.348,13.348,0,1,1,0-18.877A13.349,13.349,0,0,1,1034.64,316.68Z" transform="translate(-1011.854 -293.892)"/></g><g transform="translate(175.605 175.606)"><g transform="translate(3.027 3.027)"><rect class="c" width="3.904" height="30.525" transform="matrix(0.707, -0.707, 0.707, 0.707, 0, 2.761)"/></g><path class="c" d="M1201.541,276.188l-1.812-17.8,17.8,1.812-.394,3.883-13.038-1.327,1.327,13.036Z" transform="translate(-1199.729 -258.386)"/></g><g transform="translate(61.38 61.378)"><rect class="c" width="3.904" height="30.525" transform="translate(0 2.76) rotate(-44.996)"/><g transform="translate(9.571 9.572)"><path class="c" d="M1077.989,136.643l-17.8-1.81.393-3.883,13.036,1.327-1.326-13.035,3.883-.4Z" transform="translate(-1060.189 -118.845)"/></g></g><g transform="translate(202.236 202.235)"><path class="d" d="M1239.145,316.68a13.349,13.349,0,1,1,18.88,0A13.35,13.35,0,0,1,1239.145,316.68Z" transform="translate(-1235.236 -293.892)"/></g><g transform="translate(34.7 34.698)"><path class="d" d="M1015.764,93.3a13.348,13.348,0,1,1,18.876,0A13.348,13.348,0,0,1,1015.764,93.3Z" transform="translate(-1011.854 -70.51)"/></g><g transform="translate(60.236 13.097)"><path class="c" d="M1048.226,65.843l-2.323-3.137c1.059-.788,2.138-1.558,3.225-2.31l2.219,3.212Q1049.768,64.7,1048.226,65.843Zm6.316-4.364L1052.43,58.2q1.67-1.071,3.372-2.089l2,3.352Q1056.153,60.441,1054.542,61.479Zm6.589-3.938-1.89-3.416q1.735-.961,3.5-1.863l1.777,3.477Q1062.809,56.612,1061.131,57.542Zm6.838-3.495-1.662-3.533q1.792-.843,3.62-1.629l1.54,3.589Q1069.7,53.229,1067.969,54.047Zm7.048-3.032-1.423-3.638q1.845-.72,3.719-1.385l1.3,3.681Q1076.8,50.317,1075.016,51.015Zm7.237-2.562-1.18-3.721q1.887-.6,3.8-1.136l1.055,3.759Q1084.081,47.874,1082.253,48.453Zm7.387-2.075-.927-3.792q1.922-.468,3.868-.88l.8,3.82Q1091.5,45.924,1089.641,46.379Z" transform="translate(-1045.903 -41.707)"/></g><g transform="translate(12.911 64.136)"><path class="c" d="M986.659,158.037l-3.856-.618q.313-1.963.692-3.908l3.832.746Q986.961,156.137,986.659,158.037Zm1.459-7.538-3.806-.871q.443-1.938.948-3.851l3.775.994Q988.55,148.623,988.118,150.5Zm1.959-7.427-3.741-1.119q.573-1.906,1.2-3.785l3.7,1.245Q990.629,141.233,990.077,143.073Zm2.447-7.277-3.657-1.365q.694-1.864,1.452-3.7l3.608,1.49Q993.195,133.994,992.524,135.8Zm2.923-7.1-3.559-1.606q.817-1.811,1.691-3.589l3.5,1.722Q996.238,126.944,995.447,128.7Zm3.388-6.89-3.446-1.838c.623-1.166,1.266-2.325,1.927-3.469l3.383,1.949Q999.737,120.111,998.835,121.806Zm3.833-6.652-3.317-2.061q1.047-1.685,2.152-3.335l3.247,2.171Q1003.68,113.524,1002.668,115.155Z" transform="translate(-982.803 -109.759)"/></g><g transform="translate(12.839 149.021)"><path class="c" d="M1005.188,276.9q-1.191-1.59-2.326-3.218l3.2-2.231q1.1,1.575,2.249,3.111Zm-4.543-6.506q-1.078-1.663-2.107-3.36l3.341-2.021q.993,1.643,2.041,3.251Zm-4.1-6.792q-.969-1.73-1.881-3.495l3.469-1.792q.881,1.705,1.818,3.378Zm-3.645-7.048q-.855-1.789-1.647-3.609l3.578-1.563q.766,1.762,1.594,3.492Zm-3.172-7.274q-.731-1.84-1.4-3.711L992,244.25q.652,1.811,1.359,3.592Zm-2.684-7.467q-.605-1.883-1.154-3.8l3.755-1.072q.529,1.848,1.116,3.672Zm-2.181-7.63q-.479-1.917-.9-3.863l3.817-.821q.4,1.88.87,3.736Zm-1.669-7.757c-.172-.956-.332-1.916-.485-2.879l3.857-.611q.222,1.4.473,2.8Z" transform="translate(-982.707 -222.939)"/></g><g transform="translate(64.22 227.379)"><path class="c" d="M1098.726,349.724q-1.963-.326-3.9-.721l.772-3.825q1.876.377,3.775.7Zm-7.779-1.573q-1.939-.458-3.846-.978l1.027-3.767q1.845.5,3.719.948Zm-7.658-2.084q-1.9-.587-3.774-1.232l1.273-3.691q1.811.625,3.653,1.193Zm-7.5-2.59q-1.852-.71-3.68-1.477l1.513-3.6q1.77.744,3.564,1.431Zm-7.314-3.081q-1.8-.83-3.576-1.72l1.748-3.491q1.717.862,3.463,1.665Zm-7.094-3.557q-1.746-.95-3.457-1.953l1.976-3.367q1.653.972,3.344,1.89Zm-6.842-4.019q-1.677-1.06-3.32-2.173l2.195-3.23q1.59,1.078,3.212,2.1Z" transform="translate(-1051.215 -327.417)"/></g><g transform="translate(151.384 227.318)"><path class="c" d="M1168.112,349.854l-.679-3.844q1.89-.333,3.766-.733l.808,3.821Q1170.068,349.508,1168.112,349.854Zm7.767-1.644-.936-3.79q1.865-.461,3.712-.981l1.06,3.757Q1177.8,347.734,1175.879,348.21Zm7.634-2.15-1.178-3.721q1.83-.579,3.642-1.22l1.3,3.683Q1185.406,345.46,1183.513,346.06Zm7.478-2.638-1.413-3.639q1.791-.7,3.559-1.449l1.529,3.593Q1192.845,342.7,1190.991,343.421Zm7.3-3.106-1.642-3.542q1.741-.81,3.456-1.67l1.756,3.487Q1200.09,339.478,1198.289,340.315Zm7.085-3.565-1.865-3.429q1.689-.919,3.342-1.888l1.974,3.368Q1207.121,335.8,1205.374,336.75Zm6.842-4.011-2.084-3.3c1.082-.685,2.156-1.385,3.21-2.1l2.192,3.234Q1213.9,331.677,1212.216,332.739Z" transform="translate(-1167.433 -327.335)"/></g><g transform="translate(229.017 149.026)"><path class="c" d="M1274.2,271.28l-3.256-2.155q1.061-1.6,2.072-3.238l3.322,2.049Q1275.3,269.628,1274.2,271.28Zm4.162-6.756-3.389-1.942q.956-1.662,1.85-3.36l3.452,1.823Q1279.349,262.8,1278.362,264.524Zm3.709-7.017-3.509-1.71q.838-1.724,1.621-3.477l3.566,1.591Q1282.941,255.725,1282.071,257.507Zm3.236-7.247-3.614-1.474q.72-1.772,1.387-3.578l3.662,1.352Q1286.058,248.425,1285.307,250.26Zm2.747-7.446-3.706-1.231q.606-1.818,1.149-3.662l3.743,1.105Q1288.677,240.934,1288.055,242.814Zm2.252-7.613-3.779-.979q.479-1.856.9-3.734l3.81.854Q1290.8,233.284,1290.307,235.2Zm1.735-7.747-3.835-.726q.359-1.88.654-3.782l3.858.6Q1292.414,225.514,1292.042,227.454Z" transform="translate(-1270.944 -222.946)"/></g><g transform="translate(226.608 60.9)"><path class="c" d="M1287.325,153.2c-.246-1.26-.508-2.513-.793-3.757l3.807-.868q.44,1.929.819,3.879Zm-1.707-7.482q-.493-1.861-1.04-3.7l3.741-1.121q.564,1.9,1.073,3.82Zm-2.2-7.353q-.614-1.824-1.284-3.62l3.657-1.364q.694,1.855,1.327,3.738Zm-2.684-7.19q-.732-1.781-1.52-3.528l3.559-1.6q.816,1.807,1.57,3.642Zm-3.155-7q-.849-1.723-1.75-3.416l3.443-1.837q.935,1.748,1.81,3.529Zm-3.611-6.776q-.961-1.663-1.973-3.292l3.317-2.062q1.047,1.685,2.039,3.407Zm-4.049-6.521q-1.069-1.6-2.186-3.159l3.174-2.272q1.155,1.613,2.257,3.263Z" transform="translate(-1267.732 -105.445)"/></g><g transform="translate(150.893 12.124)"><path class="c" d="M1212.8,62.578q-1.589-1.074-3.218-2.1l2.077-3.307q1.682,1.056,3.324,2.165Zm-6.5-4.084q-1.655-.965-3.347-1.879l1.855-3.437q1.746.946,3.459,1.942Zm-6.755-3.647q-1.717-.855-3.464-1.653l1.621-3.551q1.806.825,3.583,1.709Zm-6.985-3.191q-1.765-.739-3.566-1.42l1.383-3.65q1.861.7,3.688,1.466Zm-7.177-2.722q-1.815-.621-3.652-1.18l1.139-3.736q1.9.58,3.777,1.22Zm-7.343-2.239q-1.849-.5-3.724-.936l.886-3.8q1.938.454,3.848.966Zm-7.477-1.746q-1.879-.375-3.78-.687l.636-3.853q1.96.324,3.9.709Z" transform="translate(-1166.778 -40.41)"/></g></g><g transform="translate(1190.635 34.84)"><g transform="translate(11.275)"><rect class="a" width="3.7" height="6.991"/></g><g transform="translate(11.275 19.258)"><rect class="a" width="3.7" height="6.99"/></g><g transform="translate(19.258 11.275)"><rect class="a" width="6.99" height="3.7"/></g><g transform="translate(0 11.275)"><rect class="a" width="6.991" height="3.7"/></g></g><g transform="translate(962.649)"><g transform="translate(11.275)"><rect class="a" width="3.701" height="6.988"/></g><g transform="translate(11.275 19.257)"><rect class="a" width="3.701" height="6.991"/></g><g transform="translate(19.258 11.272)"><rect class="a" width="6.99" height="3.7"/></g><g transform="translate(0 11.272)"><rect class="a" width="6.991" height="3.7"/></g></g><g transform="translate(941.342 228.949)"><g transform="translate(11.273)"><rect class="a" width="3.701" height="6.99"/></g><g transform="translate(11.273 19.257)"><rect class="a" width="3.701" height="6.991"/></g><g transform="translate(19.258 11.274)"><rect class="a" width="6.99" height="3.701"/></g><g transform="translate(0 11.274)"><rect class="a" width="6.988" height="3.701"/></g></g><g transform="translate(994.786 38.046)"><path class="e" d="M1020.166,54.513a3.783,3.783,0,1,1-3.783-3.784A3.784,3.784,0,0,1,1020.166,54.513Z" transform="translate(-1012.6 -50.728)"/></g><g transform="translate(1223.386 282.044)"><g transform="translate(0)"><path class="a" d="M1335.357,385.036a8.978,8.978,0,1,1-8.978-8.978A8.977,8.977,0,0,1,1335.357,385.036Z" transform="translate(-1317.401 -376.058)"/></g></g><g transform="translate(1193.204 271.357)"><path class="f" d="M1284.385,365.423a3.614,3.614,0,1,1-3.615-3.614A3.613,3.613,0,0,1,1284.385,365.423Z" transform="translate(-1277.158 -361.809)"/></g></g></svg>