<svg xmlns="http://www.w3.org/2000/svg" xmlns:xlink="http://www.w3.org/1999/xlink" width="300" height="300" viewBox="0 0 300 300"><defs><style>.a{fill:#fff;}.b{fill:#4a555f;}.c{fill:#fecc2f;}.d{fill:#6b6b6e;}.e{fill:url(#a);}.f{fill:#fc0;}.g{fill:#61f7d0;}.h{fill:#ff4b2b;}</style><linearGradient id="a" x1="-15.554" y1="1.173" x2="-15.54" y2="1.173" gradientUnits="objectBoundingBox"><stop offset="0" stop-color="#ff416c"/><stop offset="1" stop-color="#ff4b2b"/></linearGradient></defs><g transform="translate(-1368.128)"><path class="a" d="M1462.485,2.432a91.926,91.926,0,1,0,91.927,91.926A92.029,92.029,0,0,0,1462.485,2.432Z" transform="translate(-0.608 -0.608)"/><g transform="translate(1368.128)"><path class="b" d="M1461.877,187.5a93.75,93.75,0,1,1,93.751-93.75A93.856,93.856,0,0,1,1461.877,187.5Zm0-183.944a90.194,90.194,0,1,0,90.2,90.194A90.3,90.3,0,0,0,1461.877,3.556Z" transform="translate(-1368.128)"/></g><g transform="translate(1374.693 6.565)"><path class="c" d="M1464.066,183.124a87.185,87.185,0,1,1,87.186-87.185A87.284,87.284,0,0,1,1464.066,183.124Zm0-170.814a83.629,83.629,0,1,0,83.63,83.629A83.724,83.724,0,0,0,1464.066,12.31Z" transform="translate(-1376.882 -8.754)"/></g><g transform="translate(1381.259 13.14)"><path class="d" d="M1466.254,178.749c-1.206,0-2.428-.028-3.632-.081l.159-3.553c1.15.05,2.32.078,3.473.078Zm1.183-.009-.05-3.557c1.145-.016,2.314-.06,3.474-.128l.208,3.55C1469.858,178.677,1468.636,178.723,1467.437,178.74Zm-8.441-.315c-1.2-.109-2.417-.245-3.612-.408l.478-3.524c1.141.155,2.3.285,3.451.389Zm15.7-.116-.371-3.535c1.148-.12,2.309-.268,3.448-.439l.527,3.517C1477.1,178.031,1475.892,178.184,1474.693,178.309Zm-22.9-.861c-1.195-.217-2.392-.463-3.561-.731l.8-3.466c1.117.257,2.261.491,3.4.7Zm30.084-.22-.688-3.489c1.13-.222,2.272-.474,3.392-.747l.846,3.454C1484.256,176.732,1483.062,176.994,1481.878,177.228Zm-37.171-1.4c-1.159-.321-2.329-.676-3.479-1.051l1.106-3.38c1.1.359,2.216.7,3.325,1Zm44.235-.326-1-3.41c1.106-.327,2.22-.681,3.308-1.057l1.155,3.365C1491.264,174.788,1490.1,175.159,1488.943,175.5Zm-51.152-1.938c-1.133-.428-2.267-.889-3.375-1.365l1.407-3.267c1.061.458,2.146.9,3.227,1.306Zm58.025-.426-1.308-3.305c1.074-.424,2.148-.878,3.192-1.348l1.457,3.246C1498.063,172.216,1496.938,172.691,1495.815,173.135Zm-64.711-2.459c-1.091-.532-2.18-1.093-3.236-1.666l1.7-3.122c1.006.548,2.048,1.083,3.091,1.592Zm71.327-.508-1.6-3.177c1.023-.513,2.053-1.064,3.063-1.629l1.741,3.1C1504.578,169.054,1503.5,169.628,1502.431,170.168ZM1424.71,167.2c-1.031-.622-2.065-1.28-3.072-1.951l1.975-2.956c.963.641,1.949,1.268,2.936,1.863Zm84.046-.588-1.88-3.019c.984-.614,1.961-1.253,2.906-1.9l2.014,2.932C1510.808,165.3,1509.784,165.97,1508.756,166.611Zm-90.1-3.447c-.97-.713-1.94-1.459-2.882-2.216l2.23-2.77q1.353,1.09,2.757,2.121Zm96.085-.664-2.144-2.836q1.386-1.049,2.725-2.158l2.267,2.741C1516.665,161.011,1515.706,161.771,1514.743,162.5ZM1413,158.6c-.905-.8-1.8-1.628-2.672-2.463l2.468-2.561q1.25,1.2,2.555,2.356Zm107.343-.736-2.389-2.635q1.285-1.167,2.521-2.392l2.5,2.525C1522.117,156.216,1521.23,157.057,1520.339,157.867Zm-112.575-4.309c-.841-.886-1.663-1.792-2.44-2.692l2.69-2.327c.743.859,1.528,1.724,2.331,2.572Zm117.735-.805-2.613-2.41q1.176-1.28,2.3-2.609l2.718,2.292C1527.133,150.938,1526.325,151.855,1525.5,152.753Zm-122.493-4.684c-.752-.952-1.489-1.927-2.188-2.9l2.884-2.078c.669.928,1.373,1.861,2.093,2.771Zm127.18-.874-2.819-2.17c.7-.91,1.392-1.852,2.058-2.8l2.913,2.04C1531.642,145.255,1530.918,146.24,1530.187,147.2ZM1398.76,142.18c-.662-1.011-1.307-2.048-1.919-3.083l3.061-1.811c.583.989,1.2,1.98,1.833,2.945Zm135.594-.942-3-1.907c.618-.972,1.224-1.975,1.8-2.98l3.084,1.771C1535.632,139.173,1535,140.221,1534.354,141.238Zm-139.291-5.3c-.565-1.061-1.116-2.149-1.634-3.239l3.211-1.531c.5,1.042,1.021,2.083,1.56,3.1Zm142.914-1.013-3.163-1.624c.535-1.038,1.047-2.091,1.523-3.13l3.233,1.481C1539.07,132.737,1538.535,133.839,1537.978,134.922Zm-146.038-5.537c-.469-1.114-.919-2.248-1.333-3.371l3.336-1.234c.4,1.075.824,2.158,1.274,3.224Zm149.074-1.078-3.3-1.334c.437-1.083.852-2.181,1.231-3.257l3.354,1.183C1541.906,126.026,1541.473,127.172,1541.014,128.306Zm-151.59-5.73c-.368-1.156-.713-2.329-1.027-3.489l3.434-.923c.3,1.106.63,2.227.982,3.332Zm154.015-1.142-3.4-1.03c.332-1.1.646-2.224.928-3.345l3.447.873C1544.115,119.106,1543.785,120.284,1543.439,121.435Zm-155.906-5.878c-.26-1.172-.5-2.373-.7-3.565l3.5-.609c.2,1.141.425,2.287.673,3.409Zm157.7-1.169-3.484-.712c.231-1.129.439-2.279.62-3.421l3.512.557C1545.687,112.006,1545.469,113.209,1545.228,114.388ZM1386.284,108.4c-.152-1.208-.28-2.426-.377-3.617l3.545-.287c.092,1.138.212,2.3.36,3.455Zm160.083-1.188-3.535-.395q.191-1.72.31-3.462l3.55.238C1546.611,104.781,1546.5,106,1546.367,107.208Zm-160.675-6.056q-.057-1.5-.056-3.021l0-.61,3.555.021v.587q0,1.45.053,2.892Zm161.161-1.194-3.557-.077q.018-.873.019-1.752c0-.581,0-1.154-.019-1.726l3.557-.078q.02.9.018,1.807C1546.872,98.741,1546.865,99.351,1546.854,99.959ZM1389.3,94.072l-3.551-.183c.062-1.22.155-2.44.271-3.627l3.54.349C1389.445,91.744,1389.357,92.909,1389.3,94.072Zm153.846-1.141c-.076-1.155-.181-2.317-.308-3.458l3.532-.4c.134,1.195.244,2.413.325,3.622ZM1389.97,87.16l-3.52-.5c.172-1.2.374-2.405.6-3.585l3.494.662C1390.326,84.86,1390.135,86.014,1389.97,87.16Zm152.4-1.133c-.178-1.134-.387-2.281-.621-3.417l3.485-.712c.242,1.185.461,2.389.648,3.576Zm-151.1-5.692-3.46-.821c.277-1.169.586-2.353.919-3.518l3.419.977C1391.827,78.085,1391.53,79.217,1391.266,80.335Zm149.705-1.108c-.283-1.114-.6-2.242-.929-3.348l3.4-1.028c.353,1.159.679,2.337.972,3.5Zm-147.8-5.57-3.371-1.13c.379-1.134.8-2.287,1.237-3.426l3.317,1.281C1393.936,71.47,1393.537,72.574,1393.174,73.656Zm145.788-1.079c-.382-1.088-.794-2.176-1.225-3.241l3.3-1.333c.451,1.114.883,2.255,1.283,3.394Zm-143.273-5.412-3.255-1.433c.482-1.1,1-2.2,1.542-3.3l3.188,1.576C1396.644,65.057,1396.149,66.118,1395.688,67.165Zm140.677-1.01q-.725-1.58-1.514-3.121l3.163-1.625c.544,1.057,1.077,2.155,1.584,3.262ZM1398.779,60.93l-3.111-1.722c.581-1.047,1.2-2.1,1.833-3.142l3.03,1.858C1399.922,58.919,1399.333,59.93,1398.779,60.93Zm134.415-.947c-.565-.99-1.167-1.991-1.787-2.97l3-1.9c.65,1.026,1.28,2.074,1.872,3.112ZM1402.419,55l-2.945-1.994c.676-1,1.384-1.993,2.109-2.965l2.852,2.125C1403.742,53.1,1403.064,54.053,1402.419,55Zm127.065-.882q-1-1.423-2.052-2.8l2.823-2.165c.727.947,1.447,1.934,2.143,2.929Zm-122.91-4.692-2.753-2.251c.757-.928,1.552-1.857,2.362-2.762l2.651,2.371Q1407.673,48.082,1406.574,49.43Zm118.68-.819c-.736-.879-1.507-1.757-2.292-2.609l2.616-2.407c.822.891,1.631,1.81,2.4,2.729ZM1411.209,44.25l-2.542-2.488c.847-.863,1.72-1.718,2.6-2.539l2.428,2.6C1412.854,42.607,1412.017,43.424,1411.209,44.25ZM1520.55,43.5c-.813-.812-1.66-1.618-2.517-2.394l2.392-2.632c.9.813,1.783,1.657,2.635,2.506Zm-104.264-3.989-2.308-2.707c.914-.78,1.861-1.553,2.813-2.294l2.188,2.8Q1417.609,38.379,1416.285,39.509Zm99.122-.686c-.877-.732-1.795-1.458-2.722-2.16l2.146-2.836c.972.736,1.93,1.5,2.849,2.261Zm-93.642-3.583-2.058-2.9c.986-.7,2-1.382,3.006-2.033l1.927,2.989C1423.675,33.917,1422.708,34.571,1421.766,35.24Zm88.1-.614c-.951-.655-1.93-1.3-2.909-1.908l1.884-3.017c1.024.64,2.047,1.311,3.041,2ZM1427.6,31.481l-1.79-3.073c1.044-.607,2.111-1.2,3.178-1.755l1.648,3.151C1429.617,30.336,1428.6,30.9,1427.6,31.481Zm76.369-.539c-1.007-.567-2.039-1.119-3.07-1.64l1.6-3.174c1.079.545,2.158,1.123,3.211,1.718Zm-70.225-2.678-1.505-3.221c1.093-.511,2.211-1,3.319-1.461l1.359,3.286C1435.855,27.308,1434.787,27.778,1433.744,28.264Zm64.011-.46c-1.048-.472-2.128-.929-3.2-1.356l1.31-3.305c1.128.448,2.255.925,3.355,1.417Zm-57.605-2.186-1.209-3.344c1.132-.409,2.292-.8,3.448-1.157l1.055,3.395C1442.339,24.856,1441.23,25.229,1440.15,25.618Zm51.135-.379c-1.088-.374-2.2-.73-3.317-1.058l1-3.411c1.164.343,2.333.716,3.47,1.108Zm-44.5-1.682-.9-3.439c1.169-.306,2.359-.588,3.535-.839l.74,3.477C1449.037,23,1447.9,23.266,1446.782,23.557Zm37.831-.279c-1.116-.276-2.255-.529-3.392-.751l.691-3.489c1.187.235,2.381.5,3.551.785Zm-31.039-1.167-.583-3.511c1.189-.2,2.4-.37,3.6-.513l.424,3.529C1455.868,21.757,1454.711,21.921,1453.574,22.111Zm24.226-.181c-1.144-.174-2.3-.322-3.445-.442l.371-3.536c1.194.125,2.407.28,3.6.461Zm-17.329-.649-.264-3.547c1.206-.089,2.428-.152,3.63-.188l.107,3.554C1462.793,21.137,1461.625,21.2,1460.471,21.282Zm10.42-.076q-1.729-.1-3.472-.13l.053-3.556c1.211.019,2.431.064,3.631.134Z" transform="translate(-1385.636 -17.52)"/></g><path class="e" d="M1500.236,96.314a7.425,7.425,0,0,1-7.431,7.406h-40.191l39.952,61.9a65.64,65.64,0,0,1-9.588,2.487l-41.555-64.391h-22.166l41.716,64.636a65.444,65.444,0,0,1-54.595-74.736q.369-2.372.912-4.712H1492.8A7.425,7.425,0,0,1,1500.236,96.314Zm-28.99-58.025a65.654,65.654,0,0,0-56.468,32.041h78.029a25.985,25.985,0,0,1,0,51.969h-6.039l22.458,34.8a65.4,65.4,0,0,0-37.98-118.809Z" transform="translate(-9.365 -9.572)"/><path class="a" d="M1612.468,152.362a91.979,91.979,0,1,0,91.979,91.979A92.082,92.082,0,0,0,1612.468,152.362Z" transform="translate(-38.09 -38.09)"/><path class="a" d="M1619.481,180.417a70.937,70.937,0,1,0,70.939,70.937A71.017,71.017,0,0,0,1619.481,180.417Z" transform="translate(-45.104 -45.104)"/><g transform="translate(1480.628 112.5)"><path class="b" d="M1611.877,337.5a93.75,93.75,0,1,1,93.751-93.75A93.856,93.856,0,0,1,1611.877,337.5Zm0-183.944a90.194,90.194,0,1,0,90.2,90.194A90.3,90.3,0,0,0,1611.877,153.556Z" transform="translate(-1518.128 -150)"/></g><g transform="translate(1487.193 119.065)"><path class="c" d="M1614.066,333.124a87.185,87.185,0,1,1,87.186-87.185A87.284,87.284,0,0,1,1614.066,333.124Zm0-170.814a83.629,83.629,0,1,0,83.63,83.629A83.724,83.724,0,0,0,1614.066,162.31Z" transform="translate(-1526.882 -158.754)"/></g><g transform="translate(1493.759 125.64)"><path class="d" d="M1616.254,328.749c-1.206,0-2.428-.028-3.632-.081l.159-3.553c1.15.05,2.32.078,3.473.078Zm1.183-.009-.05-3.557c1.145-.016,2.314-.06,3.474-.128l.208,3.55C1619.858,328.677,1618.636,328.724,1617.437,328.74Zm-8.441-.315c-1.2-.109-2.417-.245-3.612-.408l.478-3.523c1.141.155,2.3.285,3.451.389Zm15.7-.116-.371-3.535c1.148-.12,2.309-.268,3.448-.439l.527,3.517C1627.1,328.031,1625.892,328.184,1624.693,328.309Zm-22.9-.861c-1.195-.217-2.392-.463-3.561-.731l.8-3.466c1.117.257,2.261.491,3.4.7Zm30.084-.22-.688-3.489c1.13-.222,2.272-.474,3.392-.747l.846,3.454C1634.256,326.732,1633.062,326.994,1631.878,327.228Zm-37.171-1.4c-1.159-.321-2.329-.676-3.479-1.051l1.106-3.38c1.1.359,2.216.7,3.325,1.005Zm44.235-.326-1-3.41c1.106-.327,2.22-.681,3.308-1.057l1.155,3.365C1641.264,324.788,1640.1,325.159,1638.943,325.5Zm-51.152-1.938c-1.133-.428-2.267-.889-3.375-1.365l1.407-3.267c1.061.458,2.146.9,3.227,1.306Zm58.025-.426-1.308-3.305c1.074-.424,2.148-.878,3.192-1.348l1.457,3.246C1648.063,322.216,1646.938,322.69,1645.815,323.135Zm-64.711-2.459c-1.091-.533-2.18-1.093-3.236-1.666l1.7-3.122c1.006.548,2.048,1.083,3.091,1.592Zm71.327-.509-1.6-3.177c1.023-.513,2.053-1.064,3.063-1.629l1.741,3.1C1654.578,319.054,1653.5,319.628,1652.431,320.167ZM1574.71,317.2c-1.031-.622-2.065-1.28-3.072-1.952l1.975-2.956c.963.641,1.949,1.268,2.936,1.863Zm84.046-.588-1.88-3.019c.984-.614,1.961-1.253,2.906-1.9l2.014,2.932C1660.808,315.3,1659.784,315.97,1658.756,316.611Zm-90.1-3.447c-.97-.713-1.94-1.459-2.882-2.216l2.23-2.771q1.353,1.09,2.757,2.121Zm96.085-.664-2.144-2.836q1.386-1.049,2.725-2.158l2.267,2.741C1666.665,311.011,1665.706,311.771,1664.743,312.5ZM1563,308.6c-.905-.8-1.8-1.628-2.672-2.463l2.468-2.56q1.25,1.2,2.555,2.357Zm107.343-.736-2.389-2.635q1.285-1.167,2.521-2.392l2.5,2.525C1672.117,306.216,1671.23,307.057,1670.339,307.867Zm-112.575-4.309c-.841-.887-1.663-1.792-2.44-2.692l2.69-2.327c.743.859,1.528,1.724,2.331,2.572Zm117.735-.806-2.613-2.41q1.176-1.28,2.3-2.609l2.718,2.292C1677.133,300.938,1676.325,301.855,1675.5,302.753Zm-122.493-4.684c-.752-.952-1.489-1.928-2.188-2.9l2.884-2.078c.669.928,1.373,1.861,2.093,2.771Zm127.18-.875-2.819-2.17c.7-.91,1.392-1.852,2.058-2.8l2.913,2.04C1681.642,295.255,1680.918,296.24,1680.187,297.2ZM1548.76,292.18c-.662-1.011-1.307-2.048-1.919-3.083l3.061-1.81c.583.988,1.2,1.98,1.833,2.944Zm135.594-.942-3-1.907c.618-.972,1.224-1.975,1.8-2.98l3.084,1.771C1685.632,289.173,1685,290.221,1684.354,291.238Zm-139.291-5.3c-.565-1.061-1.116-2.149-1.634-3.238l3.211-1.531c.5,1.042,1.021,2.083,1.56,3.1Zm142.914-1.013-3.163-1.624c.535-1.038,1.047-2.091,1.523-3.13l3.233,1.481C1689.07,282.737,1688.535,283.839,1687.978,284.922Zm-146.038-5.537c-.469-1.114-.919-2.248-1.333-3.371l3.336-1.234c.4,1.075.824,2.158,1.274,3.223Zm149.074-1.079-3.3-1.333c.437-1.083.852-2.181,1.231-3.257l3.354,1.183C1691.906,276.026,1691.473,277.171,1691.014,278.306Zm-151.59-5.73c-.368-1.156-.713-2.329-1.027-3.489l3.434-.923c.3,1.106.63,2.227.982,3.331Zm154.015-1.142-3.4-1.03c.332-1.1.646-2.224.928-3.345l3.447.873C1694.115,269.106,1693.785,270.284,1693.439,271.435Zm-155.906-5.878c-.26-1.172-.5-2.373-.7-3.566l3.5-.609c.2,1.141.425,2.288.673,3.409Zm157.7-1.169-3.484-.713c.231-1.129.439-2.279.62-3.421l3.512.557C1695.687,262.006,1695.469,263.21,1695.228,264.388ZM1536.284,258.4c-.152-1.208-.28-2.425-.377-3.616l3.545-.287c.092,1.138.212,2.3.36,3.454Zm160.083-1.188-3.535-.395q.191-1.72.31-3.462l3.55.238C1696.611,254.781,1696.5,256,1696.367,257.208Zm-160.675-6.056q-.057-1.5-.056-3.021l0-.61,3.555.021v.587q0,1.45.053,2.892Zm161.161-1.194-3.557-.076q.018-.873.019-1.752c0-.58,0-1.154-.019-1.726l3.557-.078q.02.9.018,1.807C1696.872,248.741,1696.865,249.351,1696.854,249.958ZM1539.3,244.073l-3.551-.183c.062-1.22.155-2.44.271-3.627l3.54.349C1539.445,241.744,1539.357,242.909,1539.3,244.073Zm153.846-1.142c-.076-1.155-.181-2.317-.308-3.458l3.532-.4c.134,1.195.244,2.414.325,3.623ZM1539.97,237.16l-3.52-.5c.172-1.2.374-2.405.6-3.585l3.494.662C1540.326,234.86,1540.135,236.014,1539.97,237.16Zm152.4-1.132c-.178-1.134-.387-2.281-.621-3.417l3.485-.713c.242,1.185.461,2.389.648,3.576Zm-151.1-5.693-3.46-.821c.277-1.169.586-2.353.919-3.518l3.419.977C1541.827,228.085,1541.53,229.217,1541.266,230.335Zm149.705-1.108c-.283-1.114-.6-2.242-.929-3.348l3.4-1.027c.353,1.159.679,2.337.972,3.5Zm-147.8-5.57-3.371-1.13c.379-1.134.8-2.287,1.237-3.426l3.317,1.281C1543.936,221.471,1543.537,222.574,1543.174,223.656Zm145.788-1.079c-.382-1.087-.794-2.176-1.225-3.241l3.3-1.333c.451,1.114.883,2.255,1.283,3.394Zm-143.273-5.412-3.255-1.433c.482-1.1,1-2.2,1.542-3.3l3.188,1.576C1546.644,215.057,1546.149,216.118,1545.688,217.165Zm140.677-1.01q-.725-1.58-1.514-3.121l3.163-1.624c.544,1.058,1.077,2.155,1.584,3.262Zm-137.587-5.225-3.111-1.722c.581-1.047,1.2-2.1,1.833-3.142l3.03,1.859C1549.922,208.919,1549.333,209.93,1548.779,210.93Zm134.415-.947c-.565-.99-1.167-1.991-1.787-2.97l3-1.9c.65,1.026,1.28,2.074,1.872,3.112ZM1552.419,205l-2.945-1.994c.676-1,1.384-1.994,2.109-2.965l2.852,2.126C1553.742,203.1,1553.064,204.053,1552.419,205Zm127.065-.882q-1-1.423-2.052-2.8l2.823-2.165c.727.947,1.447,1.934,2.143,2.93Zm-122.91-4.692-2.753-2.251c.757-.929,1.552-1.857,2.362-2.762l2.651,2.371Q1557.673,198.082,1556.574,199.43Zm118.68-.819c-.736-.879-1.507-1.757-2.292-2.608l2.616-2.407c.822.891,1.631,1.81,2.4,2.729Zm-114.045-4.361-2.542-2.488c.847-.863,1.72-1.718,2.6-2.54l2.428,2.6C1562.854,192.607,1562.017,193.424,1561.209,194.25Zm109.341-.752c-.813-.812-1.66-1.618-2.517-2.394l2.392-2.633c.9.813,1.783,1.657,2.635,2.506Zm-104.264-3.988-2.308-2.707c.914-.78,1.861-1.553,2.813-2.294l2.188,2.8Q1567.609,188.379,1566.285,189.509Zm99.122-.686c-.877-.732-1.795-1.458-2.722-2.16l2.146-2.836c.972.736,1.93,1.5,2.849,2.261Zm-93.642-3.583-2.058-2.9c.986-.7,2-1.382,3.006-2.033l1.927,2.99C1573.675,183.917,1572.708,184.57,1571.766,185.24Zm88.1-.614c-.951-.655-1.93-1.3-2.909-1.908l1.884-3.016c1.024.64,2.047,1.311,3.041,2Zm-82.268-3.145-1.79-3.073c1.044-.607,2.111-1.2,3.178-1.755l1.648,3.151C1579.617,180.336,1578.6,180.9,1577.6,181.481Zm76.369-.538c-1.007-.567-2.039-1.119-3.07-1.64l1.6-3.174c1.079.545,2.158,1.123,3.211,1.717Zm-70.225-2.678-1.505-3.22c1.093-.512,2.211-1,3.319-1.461l1.359,3.286C1585.855,177.308,1584.787,177.779,1583.744,178.264Zm64.011-.46c-1.048-.472-2.128-.929-3.2-1.356l1.31-3.305c1.128.448,2.255.925,3.355,1.417Zm-57.605-2.186-1.209-3.344c1.132-.409,2.292-.8,3.448-1.156l1.055,3.395C1592.339,174.857,1591.23,175.229,1590.15,175.618Zm51.135-.38c-1.088-.374-2.2-.73-3.317-1.058l1-3.411c1.164.344,2.333.716,3.47,1.108Zm-44.5-1.681-.9-3.44c1.169-.306,2.359-.588,3.535-.839l.74,3.477C1599.037,173,1597.9,173.266,1596.782,173.558Zm37.831-.279c-1.116-.276-2.255-.529-3.392-.751l.691-3.489c1.187.235,2.381.5,3.551.785Zm-31.039-1.167-.583-3.511c1.189-.2,2.4-.37,3.6-.513l.424,3.529C1605.868,171.757,1604.711,171.921,1603.574,172.112Zm24.226-.181c-1.144-.174-2.3-.323-3.445-.442l.371-3.535c1.194.124,2.407.28,3.6.46Zm-17.329-.649-.264-3.547c1.206-.089,2.428-.152,3.63-.188l.107,3.554C1612.793,171.137,1611.625,171.2,1610.471,171.282Zm10.42-.076q-1.729-.1-3.472-.13l.053-3.557c1.211.019,2.431.064,3.631.134Z" transform="translate(-1535.636 -167.52)"/></g><g transform="translate(1533.766 147.504)"><path class="f" d="M1651.516,251.13a18.514,18.514,0,0,0-3.409-36.711h-7.7V196.672h-11.03v17.747H1622.4V196.672h-11.029v17.747h-9.01v0h-13.384v11.89h8.269s5.115-.734,5.115,5v48.4c0,5.732-5.115,5-5.115,5h-8.269v11.89h13.384v0h9.01v17.576H1622.4V296.589h0v-.155h6.974v17.731h11.03V296.433h10.85a22.653,22.653,0,0,0,.257-45.3ZM1622.4,227.057h12.174a10.916,10.916,0,1,1,0,21.831H1622.4Zm25.51,53.273a11.782,11.782,0,0,1-8.36,3.461H1622.4V260.145h17.149a11.826,11.826,0,0,1,8.36,20.185Z" transform="translate(-1588.979 -196.672)"/></g><g transform="translate(1397.352 256.628)"><g transform="translate(9.724)"><rect class="g" width="3.185" height="6.026"/></g><g transform="translate(9.724 16.604)"><rect class="g" width="3.185" height="6.026"/></g><g transform="translate(16.604 9.723)"><rect class="g" width="6.026" height="3.185"/></g><g transform="translate(0 9.724)"><rect class="g" width="6.029" height="3.185"/></g></g><g transform="translate(1601.479 18.073)"><g transform="translate(9.721)"><rect class="g" width="3.185" height="6.026"/></g><g transform="translate(9.721 16.604)"><rect class="g" width="3.185" height="6.026"/></g><g transform="translate(16.602 9.721)"><rect class="g" width="6.029" height="3.185"/></g><g transform="translate(0 9.724)"><rect class="g" width="6.026" height="3.185"/></g></g><g transform="translate(1633.281 74.98)"><path class="h" d="M1734.88,106.581a6.607,6.607,0,1,1-6.607-6.607A6.605,6.605,0,0,1,1734.88,106.581Z" transform="translate(-1721.666 -99.974)"/></g><g transform="translate(1417.127 199.382)"><path class="h" d="M1450.522,274.375a8.531,8.531,0,1,1-8.531-8.533A8.532,8.532,0,0,1,1450.522,274.375Z" transform="translate(-1433.46 -265.842)"/></g><g transform="translate(1469.375 101.246)"><g transform="translate(0.003 0.004)"><path class="a" d="M1600.628,183.749A48.75,48.75,0,1,1,1551.879,135,48.75,48.75,0,0,1,1600.628,183.749Z" transform="translate(-1503.128 -135)"/></g><g transform="translate(13.937 13.934)"><path class="g" d="M1591.344,188.392a34.819,34.819,0,1,1-34.82-34.819A34.815,34.815,0,0,1,1591.344,188.392Z" transform="translate(-1521.706 -153.573)"/></g><path class="b" d="M1551.878,232.5a48.752,48.752,0,1,1,48.754-48.751A48.806,48.806,0,0,1,1551.878,232.5Zm0-90.909a42.157,42.157,0,1,0,42.158,42.158A42.2,42.2,0,0,0,1551.878,141.59Z" transform="translate(-1503.124 -134.995)"/><g transform="translate(30.646 25.166)"><g transform="translate(1.301)"><path class="a" d="M1578.241,199.809,1565.054,213a9.061,9.061,0,0,1-12.977-12.648c.054-.056.11-.11.165-.164l18.8-18.8a5.334,5.334,0,0,0-7.543-7.543l-15.144,15.144-2.635-2.635,15.145-15.145a9.06,9.06,0,0,1,12.813,12.813l-18.8,18.8a5.335,5.335,0,0,0,7.417,7.67c.043-.041.085-.084.126-.127l13.185-13.184Z" transform="translate(-1545.721 -168.55)"/></g><g transform="translate(23.152 26.89)"><path class="a" d="M1586.626,216.279a1.863,1.863,0,0,1-3.179-1.316l0-6.827-6.726-.005a1.863,1.863,0,1,1,0-3.726h8.584a1.862,1.862,0,0,1,1.863,1.859v0l0,8.695A1.853,1.853,0,0,1,1586.626,216.279Z" transform="translate(-1574.856 -204.404)"/></g><g transform="translate(0 9.363)"><path class="a" d="M1555.855,192.8a1.858,1.858,0,0,1-1.317.546h-8.689a1.862,1.862,0,0,1-1.863-1.86V182.9a1.863,1.863,0,1,1,3.726,0v6.721h6.824a1.863,1.863,0,0,1,1.318,3.179Z" transform="translate(-1543.986 -181.034)"/></g></g></g></g></svg>