<svg xmlns="http://www.w3.org/2000/svg" xmlns:xlink="http://www.w3.org/1999/xlink" width="300" height="300" viewBox="0 0 300 300"><defs><style>.a{fill:#61f7d0;}.b{fill:#ff416c;}.c{fill:#ff4b2b;}.d{fill:#fff;}.e{fill:#fc0;}.f{fill:#4a555f;}.g{fill:#71cce0;}.h{fill:#6b6b6e;}.i{fill:url(#a);}.j{fill:#dfdfdf;}</style><linearGradient id="a" x1="-19.476" y1="0.59" x2="-19.461" y2="0.59" gradientUnits="objectBoundingBox"><stop offset="0" stop-color="#ff416c"/><stop offset="1" stop-color="#ff4b2b"/></linearGradient></defs><g transform="translate(-506.929)"><g transform="translate(725.321)"><g transform="translate(9.723)"><rect class="a" width="3.185" height="6.026"/></g><g transform="translate(9.723 16.603)"><rect class="a" width="3.185" height="6.027"/></g><g transform="translate(16.603 9.723)"><rect class="a" width="6.026" height="3.185"/></g><g transform="translate(0 9.723)"><rect class="a" width="6.026" height="3.185"/></g></g><g transform="translate(532.701 227.966)"><g transform="translate(9.722)"><rect class="a" width="3.185" height="6.026"/></g><g transform="translate(9.722 16.604)"><rect class="a" width="3.185" height="6.026"/></g><g transform="translate(16.603 9.721)"><rect class="a" width="6.026" height="3.185"/></g><g transform="translate(0 9.721)"><rect class="a" width="6.026" height="3.185"/></g></g><g transform="translate(580.013 22.63)"><g transform="translate(0)"><path class="b" d="M613.288,34.63a4.457,4.457,0,1,1-4.456-4.456A4.457,4.457,0,0,1,613.288,34.63Z" transform="translate(-604.374 -30.174)"/></g></g><g transform="translate(507.683 117.994)"><path class="c" d="M528.2,167.46a10.134,10.134,0,1,1-10.135-10.135A10.135,10.135,0,0,1,528.2,167.46Z" transform="translate(-507.934 -157.325)"/></g><g transform="translate(506.929 35.153)"><g transform="translate(13.004 7.017)"><path class="d" d="M610.424,61.878l61.733,34.877-23.407,30.4L590.37,82.2S561.084,67.356,532.9,75.372l-8.636-6.649S572.6,45.963,610.424,61.878Z" transform="translate(-524.267 -56.228)"/></g><g transform="translate(0 45.183)"><path class="e" d="M525.194,228.691l84.037-109.143-16.149-12.433L509.046,216.258a10.191,10.191,0,0,0,1.858,14.291h0A10.189,10.189,0,0,0,525.194,228.691Z" transform="translate(-506.929 -107.115)"/></g><g transform="translate(110.846)"><path class="e" d="M680.969,59.305,664.821,46.871l-10.1,13.113,17.929,10.122Z" transform="translate(-654.724 -46.871)"/></g><g transform="translate(9.571 5.212)"><path class="f" d="M647.935,129.076l-59.664-45.94a99.03,99.03,0,0,0-30.91-8.547,67.267,67.267,0,0,0-25.11,1.911l-.871.248-11.69-9,2.667-1.255c1.344-.634,33.289-15.458,65.938-12.206a75.007,75.007,0,0,1,21.681,5.331l.188.092,63.54,35.9ZM557.718,71.009A100.408,100.408,0,0,1,590.04,80l.284.179,56.954,43.854L668.321,96.7,608.485,62.894a71.511,71.511,0,0,0-20.547-5.026c-26.292-2.619-52.853,7.2-61.3,10.691l5.506,4.238A71.326,71.326,0,0,1,557.718,71.009Z" transform="translate(-519.69 -53.821)"/></g><g transform="translate(29.197 12.405)"><path class="g" d="M545.858,70.117c4.073-1.307,8.855-2.66,14.091-3.8,14.438-3.152,35.408-5.32,53.511,2.185l56.073,31.679-16.363,21.25L598.642,79.442l-.449-.227C597.049,78.636,572.5,66.409,545.858,70.117Z" transform="translate(-545.858 -63.411)"/></g><g transform="translate(9.571 5.212)"><path class="h" d="M647.935,129.076l-59.664-45.94a99.03,99.03,0,0,0-30.91-8.547,67.267,67.267,0,0,0-25.11,1.911l-.871.248-11.69-9,2.667-1.255c1.344-.634,33.289-15.458,65.938-12.206a75.007,75.007,0,0,1,21.681,5.331l.188.092,63.54,35.9ZM557.718,71.009A100.408,100.408,0,0,1,590.04,80l.284.179,56.954,43.854L668.321,96.7,608.485,62.894a71.511,71.511,0,0,0-20.547-5.026c-26.292-2.619-52.853,7.2-61.3,10.691l5.506,4.238A71.326,71.326,0,0,1,557.718,71.009Z" transform="translate(-519.69 -53.821)"/></g><g transform="translate(29.197 12.405)"><path class="a" d="M545.858,70.117c4.073-1.307,8.855-2.66,14.091-3.8,14.438-3.152,35.408-5.32,53.511,2.185l56.073,31.679-16.363,21.25L598.642,79.442l-.449-.227C597.049,78.636,572.5,66.409,545.858,70.117Z" transform="translate(-545.858 -63.411)"/></g></g><g transform="translate(565.044 47.708)"><g transform="translate(66.833 74.885)"><path class="d" d="M771.327,194.594l-3.842,18.972-44.522,38.281-5.692,12.9a50.9,50.9,0,1,1,54.057-70.152Z" transform="translate(-673.526 -163.458)"/></g><path class="i" d="M746.068,214.005a4.4,4.4,0,0,1-4.4,4.384H717.883l23.645,36.638a38.746,38.746,0,0,1-5.675,1.471l-24.594-38.11H698.14l24.691,38.254a38.734,38.734,0,0,1-32.313-44.232q.219-1.4.54-2.789H741.67A4.394,4.394,0,0,1,746.068,214.005Zm-17.158-34.342a38.857,38.857,0,0,0-33.421,18.964h46.181a15.379,15.379,0,1,1,0,30.758H738.1l13.292,20.6a38.7,38.7,0,0,0-22.478-70.318Z" transform="translate(-610.824 -92.624)"/><g transform="translate(15.099 4.931)"><path class="d" d="M604.547,317.546,651.58,249.61l40.732,9.2L705.581,228.7l44.568-38.324,18.022-88.838L829.26,70.186V317.546Z" transform="translate(-604.547 -70.186)"/></g><g transform="translate(12.635 1.536)"><path class="h" d="M606.307,316.415h-5.044l48.784-70.467,40.387,9.121,12.755-28.938,44.336-38.123,18.059-89.022,64.93-33.327V316.415h-4.147V72.451l-57.114,29.314-17.946,88.462-44.7,38.438-13.753,31.2-40.988-9.256Z" transform="translate(-601.262 -65.66)"/></g><g transform="translate(169.493 43.942)"><path class="j" d="M826.566,122.2l-16.159,81.833,22.357-26.951Z" transform="translate(-810.407 -122.201)"/></g><g transform="translate(66.828 138.479)"><path class="j" d="M731.026,277.339l-14.344,36.182L673.519,304.8l46.8,26.5,20.422-27.736,4.267-27.128,19.981-28.179Z" transform="translate(-673.519 -248.25)"/></g><g transform="translate(174.885 138.479)"><path class="j" d="M864.553,311.391c-1.984,0-20.5-63.141-20.5-63.141l-5.289,41.521L817.6,331.294l28.717-23.027Z" transform="translate(-817.596 -248.25)"/></g><g transform="translate(35.049 195.026)"><g transform="translate(0 0)"><path class="j" d="M662.926,323.646l-31.779,45.778,51.972-34.345Z" transform="translate(-631.147 -323.646)"/></g></g><g transform="translate(211.672 38.667)"><path class="j" d="M866.644,211.911V168.735l19.988-53.568v50.771Z" transform="translate(-866.644 -115.167)"/></g><g transform="translate(64.76 72.812)"><path class="f" d="M717.843,266.326l-1.553-.218A52.97,52.97,0,1,1,772.547,193.1l.247.589-4.108,20.3-44.708,38.438Zm5.881-101.485a48.824,48.824,0,0,0-8.4,96.918l5.237-11.869,44.34-38.123,3.571-17.641A48.7,48.7,0,0,0,723.724,164.841Z" transform="translate(-670.762 -160.694)"/></g><g transform="translate(0 149.811)"><g transform="translate(0 0)"><path class="j" d="M637.7,263.36l-53.282,8.4,6.281,16.179Z" transform="translate(-584.416 -263.36)"/></g></g><g transform="translate(143.523)"><path class="j" d="M775.78,113.029,800.827,69.4l-15.479-5.792Z" transform="translate(-775.78 -63.611)"/></g><g transform="translate(97.908 11.606)"><path class="j" d="M730.737,105.29l.935-26.2L714.96,85.215Z" transform="translate(-714.96 -79.085)"/></g></g></g></svg>