<svg xmlns="http://www.w3.org/2000/svg" xmlns:xlink="http://www.w3.org/1999/xlink"  width="68" height="68" viewBox="0 0 68 68"><defs><style>.a{fill:url(#a);}.b{fill:#fff;}</style><linearGradient id="a" y1="0.5" x2="1" y2="0.5" gradientUnits="objectBoundingBox"><stop offset="0" stop-color="#ff416c"/><stop offset="1" stop-color="#ff4b2b"/></linearGradient></defs><g transform="translate(-50 -50)"><path class="a" d="M466.048,517.336a3.882,3.882,0,0,1-3.885,3.872H441.151l20.887,32.364a34.275,34.275,0,0,1-5.013,1.3L435.3,521.208H423.711L445.521,555a34.215,34.215,0,0,1-28.066-41.536h44.708A3.882,3.882,0,0,1,466.048,517.336ZM450.892,487a34.325,34.325,0,0,0-29.522,16.751h40.794a13.585,13.585,0,1,1,0,27.17h-3.157l11.741,18.193A34.189,34.189,0,0,0,450.892,487Z" transform="translate(-366.571 -437)"/></g></svg>