<svg xmlns="http://www.w3.org/2000/svg" width="30" height="30" viewBox="0 0 30 30"><defs><style>.a{fill:#61f7d0;}</style></defs><g transform="translate(0 22.264)"><path class="a" d="M539.6,86.923H512.1a1.25,1.25,0,0,1,0-2.5h27.5a1.25,1.25,0,1,1,0,2.5Z" transform="translate(-510.851 -84.423)"/></g><g transform="translate(3.158 3.899)"><path class="a" d="M520.058,83.25a1.251,1.251,0,0,1-1.25-1.25V64.885h-1.667V82a1.25,1.25,0,0,1-2.5,0V63.635a1.25,1.25,0,0,1,1.25-1.25h4.167a1.25,1.25,0,0,1,1.25,1.25V82A1.25,1.25,0,0,1,520.058,83.25Z" transform="translate(-514.641 -62.385)"/></g><g transform="translate(20.162 3.899)"><path class="a" d="M540.462,83.25a1.251,1.251,0,0,1-1.25-1.25V64.885h-1.667V82a1.25,1.25,0,0,1-2.5,0V63.635a1.25,1.25,0,0,1,1.25-1.25h4.167a1.25,1.25,0,0,1,1.25,1.25V82A1.25,1.25,0,0,1,540.462,83.25Z" transform="translate(-535.045 -62.385)"/></g><g transform="translate(7.325 6.283)"><path class="a" d="M527.309,73.283c-4.515,0-7.668-2.791-7.668-6.788a1.25,1.25,0,0,1,2.5,0c0,2.963,2.6,4.288,5.168,4.288s5.168-1.326,5.168-4.288a1.25,1.25,0,1,1,2.5,0C534.978,70.493,531.824,73.283,527.309,73.283Z" transform="translate(-519.641 -65.245)"/></g><g transform="translate(22.928)"><path class="a" d="M539.615,64.105a1.25,1.25,0,0,1-1.25-1.25v-3.9a1.25,1.25,0,1,1,2.5,0v3.9A1.25,1.25,0,0,1,539.615,64.105Z" transform="translate(-538.365 -57.706)"/></g><g transform="translate(5.242)"><path class="a" d="M518.391,64.105a1.25,1.25,0,0,1-1.25-1.25v-3.9a1.25,1.25,0,0,1,2.5,0v3.9A1.25,1.25,0,0,1,518.391,64.105Z" transform="translate(-517.141 -57.706)"/></g><g transform="translate(13.743 12.292)"><path class="a" d="M528.593,80.864a1.25,1.25,0,0,1-1.25-1.25V73.707a1.25,1.25,0,0,1,2.5,0v5.907A1.25,1.25,0,0,1,528.593,80.864Z" transform="translate(-527.343 -72.457)"/></g><g transform="translate(0.024 8.414)"><path class="a" d="M512.131,73.71a1.25,1.25,0,0,1-.653-2.317c.94-.576,2.4-1.795,2.56-2.584a1.25,1.25,0,1,1,2.452.487c-.424,2.133-3.165,3.9-3.711,4.231A1.243,1.243,0,0,1,512.131,73.71Z" transform="translate(-510.88 -67.802)"/></g><g transform="translate(24.341 8.414)"><path class="a" d="M544.443,73.71a1.245,1.245,0,0,1-.648-.183c-.545-.332-3.286-2.1-3.711-4.231a1.25,1.25,0,0,1,2.453-.487c.157.789,1.621,2.008,2.561,2.584a1.25,1.25,0,0,1-.654,2.317Z" transform="translate(-540.06 -67.803)"/></g><g transform="translate(1.822 26.395)"><path class="a" d="M535.78,92.985a5.149,5.149,0,0,1-2.391-.528,5.835,5.835,0,0,1-4.783,0,5.825,5.825,0,0,1-4.782,0,5.825,5.825,0,0,1-4.783,0,5.142,5.142,0,0,1-2.391.528,4.258,4.258,0,0,1-3.238-1.439,1.273,1.273,0,0,1-.018-1.787,1.227,1.227,0,0,1,1.748-.019,1.877,1.877,0,0,0,1.507.745,2.656,2.656,0,0,0,1.258-.258,2.123,2.123,0,0,1,2.267,0,3.184,3.184,0,0,0,2.517,0,2.12,2.12,0,0,1,2.267,0,3.187,3.187,0,0,0,2.516,0,2.12,2.12,0,0,1,2.267,0,3.19,3.19,0,0,0,2.515,0,2.122,2.122,0,0,1,2.266,0,2.649,2.649,0,0,0,1.258.259,2.522,2.522,0,0,0,1.5-.735,1.25,1.25,0,0,1,1.793,1.742A5,5,0,0,1,535.78,92.985Z" transform="translate(-513.037 -89.379)"/></g></svg>