<svg xmlns="http://www.w3.org/2000/svg" width="30" height="30" viewBox="0 0 30 30"><defs><style>.a{fill:#eabf6f;}</style></defs><g transform="translate(0 13.095)"><path class="a" d="M424.246,73.42H401.64a8.279,8.279,0,0,0-5.8,2.1,1.252,1.252,0,1,0,1.808,1.733,5.833,5.833,0,0,1,3.991-1.333A8.14,8.14,0,0,1,407.3,78.4a7.733,7.733,0,0,1,2.35,5.367v.192a1.252,1.252,0,0,0,1.25,1.25h3.55a3.5,3.5,0,0,1,1.475-2.5h-3.833a10.439,10.439,0,0,0-3.016-6.067,10.724,10.724,0,0,0-.792-.725H423v6.792h-3.058a3.5,3.5,0,0,1,1.475,2.5h2.833a1.254,1.254,0,0,0,1.25-1.25V74.67A1.254,1.254,0,0,0,424.246,73.42Z" transform="translate(-395.496 -73.42)"/></g><g transform="translate(0 18.02)"><path class="a" d="M401.485,81.83A3.49,3.49,0,1,1,398,85.32a3.494,3.494,0,0,1,3.49-3.49m0-2.5a5.99,5.99,0,1,0,5.989,5.99,5.989,5.989,0,0,0-5.989-5.99Z" transform="translate(-395.496 -79.33)"/></g><g transform="translate(17.685 20.499)"><path class="a" d="M421.47,84.805a2.25,2.25,0,1,1-2.251,2.25,2.252,2.252,0,0,1,2.251-2.25m0-2.5a4.75,4.75,0,1,0,4.749,4.75,4.75,4.75,0,0,0-4.749-4.75Z" transform="translate(-416.72 -82.305)"/></g><g transform="translate(4.755 0.237)"><path class="a" d="M402.452,72.687a1.25,1.25,0,0,1-1.25-1.25v-12.2a1.25,1.25,0,1,1,2.5,0v12.2A1.25,1.25,0,0,1,402.452,72.687Z" transform="translate(-401.202 -57.991)"/></g><g transform="translate(2.218)"><path class="a" d="M413.321,60.206H399.408a1.25,1.25,0,0,1,0-2.5h13.913a1.25,1.25,0,0,1,0,2.5Z" transform="translate(-398.158 -57.706)"/></g><g transform="translate(13.608 0)"><path class="a" d="M414.948,72.213a1.25,1.25,0,0,1-1.233-1.057l-1.873-12.007a1.25,1.25,0,1,1,2.47-.386l1.873,12.007a1.249,1.249,0,0,1-1.042,1.427A1.277,1.277,0,0,1,414.948,72.213Z" transform="translate(-411.827 -57.706)"/></g><g transform="translate(21.195 6.944)"><path class="a" d="M422.183,73.6a1.25,1.25,0,0,1-1.25-1.25V68.472a2.437,2.437,0,0,1,2.434-2.433h.71a1.25,1.25,0,0,1,0,2.5h-.644v3.813A1.249,1.249,0,0,1,422.183,73.6Z" transform="translate(-420.933 -66.039)"/></g></svg>