<svg xmlns="http://www.w3.org/2000/svg" width="30" height="30" viewBox="0 0 30 30"><defs><style>.a{fill:#ff4b2b;}</style></defs><g transform="translate(2.761 10.151)"><path class="a" d="M279.895,89.7H263.025a3.832,3.832,0,0,1-3.828-3.827V69.851h2.5V85.873a1.329,1.329,0,0,0,1.328,1.327h16.869a1.329,1.329,0,0,0,1.328-1.327V69.851h2.5V85.873A3.832,3.832,0,0,1,279.895,89.7Z" transform="translate(-259.197 -69.851)"/></g><path class="a" d="M257.135,71.175a1.25,1.25,0,0,1-.78-2.228l13.78-10.969a1.25,1.25,0,0,1,1.559,0l13.72,10.968a1.25,1.25,0,0,1-1.561,1.952L270.912,60.555l-13,10.347A1.244,1.244,0,0,1,257.135,71.175Z" transform="translate(-255.884 -57.706)"/><g transform="translate(9.619 16.486)"><path class="a" d="M278.189,89.717h-2.5V81.281a1.329,1.329,0,0,0-1.328-1.327h-3.106a1.328,1.328,0,0,0-1.328,1.327v8.437h-2.5V81.281a3.831,3.831,0,0,1,3.828-3.827h3.106a3.832,3.832,0,0,1,3.828,3.827Z" transform="translate(-267.427 -77.453)"/></g></svg>