<svg xmlns="http://www.w3.org/2000/svg" width="30" height="30" viewBox="0 0 30 30"><defs><style>.a{fill:#a153ef;}</style></defs><g transform="translate(0 0.463)"><path class="a" d="M370.042,87.8H355.876a7.925,7.925,0,0,1-7.917-7.917,7.265,7.265,0,0,1,2.936-5.821l7.218-5.332V59.511a1.25,1.25,0,0,1,2.5,0v9.848a1.25,1.25,0,0,1-.507,1.006l-7.726,5.707a4.755,4.755,0,0,0-1.922,3.81,5.423,5.423,0,0,0,5.417,5.417h14.167a5.423,5.423,0,0,0,5.417-5.417,4.755,4.755,0,0,0-1.923-3.81l-7.725-5.707a1.251,1.251,0,0,1-.508-1.006V59.511a1.25,1.25,0,0,1,2.5,0v9.217l7.218,5.332a7.264,7.264,0,0,1,2.938,5.821A7.926,7.926,0,0,1,370.042,87.8Z" transform="translate(-347.959 -58.261)"/></g><g transform="translate(11.508 20.429)"><path class="a" d="M378.936,84.721H363.019a1.25,1.25,0,0,1,0-2.5h15.917a1.25,1.25,0,0,1,0,2.5Z" transform="translate(-361.769 -82.221)"/></g><g transform="translate(7.747)"><path class="a" d="M370.51,60.206h-12a1.25,1.25,0,0,1,0-2.5h12a1.25,1.25,0,0,1,0,2.5Z" transform="translate(-357.256 -57.706)"/></g></svg>