<svg id="Group_2426" data-name="Group 2426" xmlns="http://www.w3.org/2000/svg" width="29.999" height="30" viewBox="0 0 29.999 30">
  <g id="Group_2427" data-name="Group 2427">
    <path id="Path_2093" data-name="Path 2093" d="M28.813,29.737H1.188A1.163,1.163,0,0,1,0,28.6V11.333A1.163,1.163,0,0,1,1.188,10.2H7.963V7.661h-1.2a.963.963,0,1,1,0-1.924h2.2a.98.98,0,0,1,1,.962v4.463a.981.981,0,0,1-1,.962H2V27.813H28V12.124H21.021a.982.982,0,0,1-1-.962V6.7a.981.981,0,0,1,1-.962h2.2a.963.963,0,1,1,0,1.924h-1.2V10.2h6.792A1.161,1.161,0,0,1,30,11.333V28.6a1.162,1.162,0,0,1-1.186,1.134" transform="translate(0 0.263)" fill="#25c3ee"/>
    <path id="Path_2094" data-name="Path 2094" d="M15,12.377a1,1,0,0,1-1-1V6.506a1,1,0,1,1,2,0v4.871a1,1,0,0,1-1,1" fill="#25c3ee"/>
    <path id="Path_2095" data-name="Path 2095" d="M17.379,12.377H12.63a1,1,0,0,1,0-2h4.749a1,1,0,0,1,0,2" fill="#25c3ee"/>
    <path id="Path_2096" data-name="Path 2096" d="M27.46,9.169a2.361,2.361,0,1,1,2.36-2.362,2.364,2.364,0,0,1-2.36,2.362m0-2.722a.361.361,0,1,0,.36.36.361.361,0,0,0-.36-.36" fill="#25c3ee"/>
    <path id="Path_2097" data-name="Path 2097" d="M2.541,9.169A2.361,2.361,0,1,1,4.9,6.807,2.364,2.364,0,0,1,2.541,9.169m0-2.722a.361.361,0,1,0,.361.36.361.361,0,0,0-.361-.36" fill="#25c3ee"/>
    <path id="Path_2098" data-name="Path 2098" d="M15,4.722A2.361,2.361,0,1,1,17.365,2.36,2.363,2.363,0,0,1,15,4.722M15,2a.361.361,0,1,0,.361.36A.361.361,0,0,0,15,2" fill="#25c3ee"/>
  </g>
</svg>
