<svg xmlns="http://www.w3.org/2000/svg" width="30" height="30" viewBox="0 0 30 30"><defs><style>.a{fill:#659dfa;}</style></defs><g transform="translate(0 4.098)"><path class="a" d="M320.513,84.442H308a6.08,6.08,0,1,1,0-12.159h17.841a3.579,3.579,0,0,0,0-7.158H311.47v-2.5h14.372a6.079,6.079,0,0,1,0,12.159H308a3.58,3.58,0,1,0,0,7.159h12.512Z" transform="translate(-301.921 -62.624)"/></g><g transform="translate(14.302 19.304)"><path class="a" d="M320.334,91.567a1.25,1.25,0,0,1-.884-2.133l3.239-3.24L319.5,83a1.25,1.25,0,0,1,1.768-1.768l4.073,4.073a1.249,1.249,0,0,1,0,1.768L321.217,91.2A1.244,1.244,0,0,1,320.334,91.567Z" transform="translate(-319.083 -80.871)"/></g><g transform="translate(7.611)"><path class="a" d="M316.427,68.4a1.246,1.246,0,0,1-.884-.366l-4.123-4.123a1.249,1.249,0,0,1,0-1.768l4.073-4.073a1.25,1.25,0,0,1,1.768,1.768l-3.189,3.189,3.238,3.238a1.25,1.25,0,0,1-.883,2.134Z" transform="translate(-311.054 -57.707)"/></g></svg>